# xmcd
#
# Track frame offsets:
#	151
#	14726
#	27777
#	36961
#	49144
#	63823
#	74526
#	91908
#	106668
#	119096
#	139060
#	153911
#	169174
#
# Disc length: 2393 seconds
#
# Revision: 0
# Processed by: cddbd v1.4PL0 Copyright (c) Steve Scherf et al.
# Submitted via: EasyCDDAExtractor 4.6.9.1
#
DISCID=ae09570d
DTITLE=Roland White - Jelly On My Tofu
DYEAR=2002
DGENRE=Bluegrass
TTITLE0=Jelly On My Tofu
TTITLE1=Sunday Sunrise
TTITLE2=Hoping That You're Hoping
TTITLE3=Bermuda Drive
TTITLE4=Someone You Have Forgotten
TTITLE5=Cabin On The Hill
TTITLE6=Rose City Waltz
TTITLE7=February Snow
TTITLE8=Satisfied Mind
TTITLE9=Roland's Rag
TTITLE10=Flesh, Blood and Bone
TTITLE11=Old Fashioned Love
TTITLE12=Rawhide
EXTD=
EXTT0=
EXTT1=
EXTT2=
EXTT3=
EXTT4=
EXTT5=
EXTT6=
EXTT7=
EXTT8=
EXTT9=
EXTT10=
EXTT11=
EXTT12=
PLAYORDER=
